# xmcd
#
# Track frame offsets: 
#        150
#        4846
#        8544
#        13131
#        28697
#        33194
#        36420
#        40532
#        45423
#        47821
#        51040
#        58618
#        68888
#        77071
#        87942
#        96404
#        103719
#        113633
#        126990
#        138487
#        152479
#
# Disc length: 2218 seconds
#
# Revision: 1
# Processed by: cddbd v1.5.2PL0 Copyright (c) Steve Scherf et al.
# Submitted via: ExactAudioCopy v0.95b4
#
DISCID=0808a815
DTITLE=Various Artist - Red White and Blue Grass ( Instrumental )
DYEAR=2009
DGENRE=Bluegrass
TTITLE0=This Land is Your Land
TTITLE1=America the Beautiful
TTITLE2=God Bless America
TTITLE3=The Battle Hymn of the Republic
TTITLE4=Oh Susanna
TTITLE5=Liberty
TTITLE6=The Arkansas Traveler
TTITLE7=Dixie
TTITLE8=When Johnny Comes Marching Home
TTITLE9=Yankee Doodle Dandy
TTITLE10=That Good Ole Mountain Dew
TTITLE11=Smoky Mountain Memories
TTITLE12=Wayfaring Stranger
TTITLE13=Morning Has Broken
TTITLE14=Swing Low, Sweet Chariot
TTITLE15=When My Blue Moon Turns to Gold
TTITLE16=Black Mountain Rag
TTITLE17=The Lily of the Valley
TTITLE18=The Wildwood Flowers
TTITLE19=The Smoky Mountain Rag
TTITLE20=America the Beautiful Reprise
EXTD=
EXTT0=
EXTT1=
EXTT2=
EXTT3=
EXTT4=
EXTT5=
EXTT6=
EXTT7=
EXTT8=
EXTT9=
EXTT10=
EXTT11=
EXTT12=
EXTT13=
EXTT14=
EXTT15=
EXTT16=
EXTT17=
EXTT18=
EXTT19=
EXTT20=
PLAYORDER=
